<svg xmlns="http://www.w3.org/2000/svg" width="48" height="48" viewBox="0 0 48 48"><defs><style>.cls-1{fill:#a4b0c0;}.cls-2{fill:none;stroke:#474c54;stroke-linecap:round;stroke-linejoin:round;stroke-width:2px;}.cls-3{fill:#2ebc70;}.cls-4{fill:#35dc86;}.cls-5{fill:#49aaee;}.cls-6{fill:#fed049;}</style></defs><title>49-Stamp</title><g id="_49-Stamp" data-name="49-Stamp"><g id="_Group_" data-name="&lt;Group&gt;"><path class="cls-1" d="M47,40v3a4,4,0,0,1-4,4H40a4,4,0,0,0-8,0H28a4,4,0,0,0-8,0H16a4,4,0,0,0-8,0H5a4,4,0,0,1-4-4V40a4,4,0,0,0,0-8V28a4,4,0,0,0,0-8V16A4,4,0,0,0,1,8V5A4,4,0,0,1,5,1H8a4,4,0,0,0,8,0h4a4,4,0,0,0,8,0h4a4,4,0,0,0,8,0h3a4,4,0,0,1,4,4V8a4,4,0,0,0,0,8v4a4,4,0,0,0,0,8v4a4,4,0,0,0,0,8Z"/><path class="cls-2" d="M43,24a4,4,0,0,1,4-4V16a4,4,0,0,1,0-8V5a4,4,0,0,0-4-4H40a4,4,0,0,1-8,0H28a4,4,0,0,1-8,0H16A4,4,0,0,1,8,1H5A4,4,0,0,0,1,5V8a4,4,0,0,1,0,8v4a4,4,0,0,1,0,8v4a4,4,0,0,1,0,8v3a4,4,0,0,0,4,4H8a4,4,0,0,1,8,0h4a4,4,0,0,1,8,0h4a4,4,0,0,1,8,0h3a4,4,0,0,0,4-4V40a4,4,0,0,1,0-8V28A4,4,0,0,1,43,24Z"/></g><g id="_Group_2" data-name="&lt;Group&gt;"><path class="cls-3" d="M38,36v1a1,1,0,0,1-1,1H34l-3-3-5-5,3-3,5,5Z"/><polygon class="cls-4" points="34 38 18 38 12 38 23 27 26 30 31 35 34 38"/><path class="cls-5" d="M38,11V36l-4-4-5-5-3,3-3-3L12,38H11a1,1,0,0,1-1-1V11a1,1,0,0,1,1-1H37A1,1,0,0,1,38,11Z"/><path class="cls-2" d="M18,38H37a1,1,0,0,0,1-1V11a1,1,0,0,0-1-1H11a1,1,0,0,0-1,1V37a1,1,0,0,0,1,1h1L23,27l3,3,5,5"/><polyline class="cls-2" points="26 30 29 27 34 32"/></g><g id="_Group_3" data-name="&lt;Group&gt;"><circle class="cls-6" cx="20" cy="19" r="4"/><circle class="cls-2" cx="20" cy="19" r="4"/></g></g></svg>